<?xml version="1.0" standalone="no"?>
<!DOCTYPE svg PUBLIC "-//W3C//DTD SVG 20010904//EN"
 "http://www.w3.org/TR/2001/REC-SVG-20010904/DTD/svg10.dtd">
<svg version="1.0" xmlns="http://www.w3.org/2000/svg"
 width="264.000000pt" height="59.000000pt" viewBox="0 0 264.000000 59.000000"
 preserveAspectRatio="xMidYMid meet">

<g transform="translate(0.000000,59.000000) scale(0.100000,-0.100000)"
fill="#000000" stroke="none">
<path d="M42 303 l3 -238 48 -3 47 -3 0 105 0 106 40 0 c57 0 106 23 124 59
31 60 13 161 -35 195 -18 12 -47 16 -126 16 l-103 0 2 -237z m183 102 l0 -60
-42 -3 -43 -3 0 66 0 66 43 -3 42 -3 0 -60z"/>
<path d="M382 303 l3 -238 38 -3 37 -3 0 134 c0 142 6 163 47 155 16 -3 19
-19 23 -143 l5 -140 38 -3 37 -3 0 159 c0 141 -2 161 -18 175 -24 22 -50 21
-89 -3 -39 -23 -46 -15 -38 44 4 24 4 58 0 75 -6 28 -10 31 -46 31 l-39 0 2
-237z"/>
<path d="M1422 508 c3 -30 6 -33 41 -36 l37 -3 0 -205 0 -204 45 0 45 0 0 205
0 205 35 0 c33 0 35 2 35 35 l0 35 -121 0 -120 0 3 -32z"/>
<path d="M2262 303 l3 -238 38 -3 c25 -2 37 1 37 10 1 7 2 114 3 238 l2 225
-43 3 -42 3 2 -238z"/>
<path d="M990 455 c0 -48 -2 -55 -20 -55 -14 0 -20 -7 -20 -24 0 -15 7 -26 20
-29 19 -5 20 -14 20 -122 0 -110 1 -117 25 -140 18 -19 35 -25 70 -25 45 0 45
0 45 35 0 28 -4 35 -19 35 -34 0 -42 23 -39 121 3 89 4 94 26 97 16 2 22 10
22 27 0 17 -6 25 -22 27 -20 3 -23 10 -26 56 l-3 52 -40 0 -39 0 0 -55z"/>
<path d="M734 395 c-17 -9 -36 -27 -43 -41 -15 -33 -14 -206 1 -239 27 -61
126 -74 180 -26 l33 29 0 116 c0 111 -1 116 -26 142 -34 33 -100 42 -145 19z
m90 -67 c3 -13 6 -60 6 -105 0 -92 -15 -122 -51 -103 -17 9 -19 22 -19 105 0
51 3 100 6 109 10 25 51 20 58 -6z"/>
<path d="M1234 395 c-17 -9 -36 -27 -43 -41 -15 -33 -14 -206 1 -239 27 -61
126 -74 180 -26 l33 29 0 116 c0 111 -1 116 -26 142 -34 33 -100 42 -145 19z
m90 -61 c3 -9 6 -55 6 -104 0 -67 -4 -92 -16 -104 -19 -20 -19 -20 -38 0 -12
12 -16 37 -16 104 0 104 5 120 35 120 13 0 26 -7 29 -16z"/>
<path d="M1723 390 c-38 -23 -53 -67 -53 -155 0 -130 29 -170 122 -170 53 0
62 3 84 28 22 26 24 36 24 138 0 61 -5 119 -11 131 -13 23 -67 48 -106 48 -15
0 -42 -9 -60 -20z m95 -156 c2 -96 0 -112 -14 -118 -35 -13 -44 12 -44 119 0
56 3 105 7 109 4 4 16 6 28 4 19 -3 20 -11 23 -114z"/>
<path d="M2020 392 c-43 -21 -59 -61 -59 -152 -1 -134 27 -175 121 -175 53 0
62 3 84 28 22 26 24 36 24 138 0 61 -5 119 -11 131 -12 22 -66 48 -101 48 -13
0 -39 -8 -58 -18z m88 -153 c2 -85 0 -108 -13 -119 -12 -10 -18 -10 -30 0 -12
10 -15 36 -15 115 0 56 3 105 7 109 4 4 16 6 28 4 18 -3 20 -11 23 -109z"/>
<path d="M2463 394 c-37 -18 -57 -60 -47 -98 3 -14 33 -50 65 -80 37 -33 59
-61 59 -74 0 -29 -36 -29 -66 -1 -18 17 -26 19 -43 10 -29 -16 -27 -24 14 -60
47 -41 100 -42 144 -5 24 20 31 34 31 62 0 32 -8 45 -66 99 -67 65 -79 95 -37
101 13 2 27 -5 36 -18 11 -16 21 -20 36 -15 27 8 27 27 -1 60 -29 33 -82 41
-125 19z"/>
</g>
</svg>
